<?xml version="1.0" encoding="UTF-8"?>
<svg width="156px" height="68px" viewBox="0 0 156 68" version="1.1" xmlns="http://www.w3.org/2000/svg">
  <path fill="#fffff2" d="M78.4584187,25.5862063 L78.4584187,25.8548562 L75.671175,25.8548562 L75.671175,25.5862063 C75.671175,25.2280045 75.5424482,24.9201794 75.2849906,24.6627219 C75.0275331,24.4052643 74.719708,24.2765375 74.3615063,24.2765375 L62.6752313,24.2765375 C62.3170295,24.2765375 62.0092044,24.4052643 61.7517469,24.6627219 C61.4942893,24.9201794 61.3655625,25.2280045 61.3655625,25.5862063 L61.3655625,28.5749375 C61.3655625,28.9331393 61.4942893,29.2409643 61.7517469,29.4984219 C62.0092044,29.7558794 62.3170295,29.8846062 62.6752313,29.8846062 L74.3615063,29.8846062 C75.5032745,29.8846062 76.4715242,30.2819804 77.2662844,31.0767406 C78.0610446,31.8715008 78.4584187,32.8285569 78.4584187,33.9479375 L78.4584187,36.9366687 C78.4584187,38.0560493 78.0610446,39.0131054 77.2662844,39.8078656 C76.4715242,40.6026258 75.5032745,41 74.3615063,41 L62.6752313,41 C61.5558507,41 60.5987946,40.6026258 59.8040344,39.8078656 C59.0092742,39.0131054 58.6119,38.0560493 58.6119,36.9366687 L58.6119,36.6680188 L61.3655625,36.6680188 L61.3655625,36.9366687 C61.3655625,37.2948705 61.4942893,37.6026956 61.7517469,37.8601531 C62.0092044,38.1176107 62.3170295,38.2463375 62.6752313,38.2463375 L74.3615063,38.2463375 C74.719708,38.2463375 75.0275331,38.1176107 75.2849906,37.8601531 C75.5424482,37.6026956 75.671175,37.2948705 75.671175,36.9366687 L75.671175,33.9479375 C75.671175,33.5897357 75.5424482,33.2819107 75.2849906,33.0244531 C75.0275331,32.7669956 74.719708,32.6382688 74.3615063,32.6382688 L62.6752313,32.6382688 C61.5558507,32.6382688 60.5987946,32.2408946 59.8040344,31.4461344 C59.0092742,30.6513742 58.6119,29.6943181 58.6119,28.5749375 L58.6119,25.5862063 C58.6119,24.4668257 59.0092742,23.5097696 59.8040344,22.7150094 C60.5987946,21.9202492 61.5558507,21.522875 62.6752313,21.522875 L74.3615063,21.522875 C75.5032745,21.522875 76.4715242,21.9202492 77.2662844,22.7150094 C78.0610446,23.5097696 78.4584187,24.4668257 78.4584187,25.5862063 Z M112.173994,21.522875 L115.162725,21.522875 L107.808431,41 L105.424162,41 L98.1706125,24.9145813 L91.2864563,41 L88.8686062,41 L81.2120812,21.522875 L84.1672313,21.522875 L90.0775312,36.029975 L96.357225,21.522875 L99.984,21.522875 L106.666669,35.9963937 L112.173994,21.522875 Z M117.748481,41 L117.748481,21.522875 L120.502144,21.522875 L120.502144,41 L117.748481,41 Z M117.748481,15.1424375 L120.502144,15.1424375 L120.502144,17.8961 L117.748481,17.8961 L117.748481,15.1424375 Z M150.523781,21.522875 C151.665549,21.522875 152.628202,21.9202492 153.411769,22.7150094 C154.195335,23.5097696 154.587113,24.4668257 154.587112,25.5862063 L154.587112,41 L151.867031,41 L151.867031,25.5862063 C151.867031,25.2280045 151.732708,24.9201794 151.464056,24.6627219 C151.195405,24.4052643 150.881983,24.2765375 150.523781,24.2765375 L142.4307,24.2765375 C142.072498,24.2765375 141.764673,24.4052643 141.507216,24.6627219 C141.249758,24.9201794 141.121031,25.2280045 141.121031,25.5862063 L141.121031,41 L138.333787,41 L138.333787,25.5862063 C138.333787,25.2280045 138.205061,24.9201794 137.947603,24.6627219 C137.690146,24.4052643 137.382321,24.2765375 137.024119,24.2765375 L128.897456,24.2765375 C128.539254,24.2765375 128.231429,24.4052643 127.973972,24.6627219 C127.716514,24.9201794 127.587787,25.2280045 127.587787,25.5862063 L127.587787,41 L124.800544,41 L124.800544,21.522875 L150.523781,21.522875 Z"/>
  <polygon fill="#008ac5" points="38.262415 60.577147 45.7497674 67.9446512 41.4336392 66.3395349"/>
  <polygon fill="#004868" points="30.6320304 56.7525259 35.7395349 55.9824716 41.4304178 66.3390957"/>
  <polygon fill="#1db0ef" points="45.8577521 43.5549215 35.7395349 55.9813953 30.895331 54.807418"/>
  <polygon fill="#008ac5" points="45.8604651 43.5549215 41.760398 48.5902277 50.5169298 42.7788873"/>
  <polygon fill="#008ac5" points="26.3271825 57.4036063 35.7395349 55.9813953 19.2251161 51.7639132"/>
  <polygon fill="#008ac5" points="21.8522892 56.6610604 26.3302326 57.4059108 24.8674419 60.4330233"/>
  <polygon fill="#46c7ff" points="25.8602519 50.1512126 21.9749543 52.4673682 26.296682 53.5765239"/>
  <polygon fill="#004868" points="8.22304588 54.4 26.3302326 57.4046512 10.7431892 45.0311035"/>
  <polygon fill="#008ac5" points="13.8293387 33.5634807 4.10372093 35.5972093 8.22325581 54.4"/>
  <polygon fill="#004868" points="8.22099482 54.4011969 0.0941817913 35.6005706 4.10375191 35.6005706"/>
  <polygon fill="#004a6a" points="29.0049687 26.1913296 29.4164365 29.8907151 13.8293023 33.5651163 4.10372093 35.5972093"/>
  <polygon fill="#46c7ff" points="29.0062121 26.1911555 4.10372093 35.5972093 18.5813833 12.4933152"/>
  <polygon fill="#008ac5" points="11.2792478 19.5948645 18.5832775 12.4930233 4.10372093 35.5972093"/>
  <polygon fill="#0076a9" points="0.0976972893 35.6005706 11.6715695 18.9158345 4.10403655 35.6005706"/>
  <polygon fill="#46c7ff" points="24.2487055 31.1058385 29.4139535 29.8876265 26.2195349 45.5916279"/>
  <polygon fill="#004868" points="34.5718675 26.2202296 36.2830885 37.7346648 31.9099624 28.1109897"/>
  <polygon fill="#00557a" points="29.0034364 26.1884581 42.3712871 20.6741037 29.4139535 29.8883721"/>
  <polygon fill="#008ac5" points="26.68 13.7746077 29.0062121 26.1911555 18.5813953 12.4930233"/>
  <polygon fill="#004868" points="11.6715695 2.42510699 18.5775948 12.4930233 11.083087 19.8858773"/>
  <polygon fill="#46c7ff" points="9.61188076 0 26.6831512 13.7746077 18.5788496 12.4908901"/>
  <path fill="#0076a9" d="M26.6778731,13.7746077 L38.8232486,18.8943879 L37.5870837,22.6477526 L29.0035088,26.187907 L26.6778731,13.7746077 Z M35.3244186,20.5976744 C35.7065226,20.5976744 36.0162791,20.2879179 36.0162791,19.905814 C36.0162791,19.52371 35.7065226,19.2139535 35.3244186,19.2139535 C34.9423146,19.2139535 34.6325581,19.52371 34.6325581,19.905814 C34.6325581,20.2879179 34.9423146,20.5976744 35.3244186,20.5976744 Z"/>
  <polygon fill="#46c7ff" points="38.8232558 18.9003694 64.0007929 11.9315264 37.5863839 22.647813"/>
</svg>
